<?xml version="1.0" standalone="no"?>
<!DOCTYPE svg PUBLIC "-//W3C//DTD SVG 20010904//EN"
 "http://www.w3.org/TR/2001/REC-SVG-20010904/DTD/svg10.dtd">
<svg version="1.0" xmlns="http://www.w3.org/2000/svg"
 width="1000.000000pt" height="1000.000000pt" viewBox="0 0 1000.000000 1000.000000"
 preserveAspectRatio="xMidYMid meet">
<metadata>
Created by potrace 1.11, written by Peter Selinger 2001-2013
</metadata>
<g transform="translate(0.000000,1000.000000) scale(0.100000,-0.100000)"
fill="#000000" stroke="none">
<path d="M0 5000 l0 -5000 5000 0 5000 0 0 5000 0 5000 -5000 0 -5000 0 0
-5000z m1890 2169 c0 -758 1 -800 18 -795 9 3 678 312 1486 686 l1468 680 104
0 104 0 0 -735 0 -735 1590 0 1590 0 0 -2120 0 -2120 -1695 0 -1695 0 0 105 0
105 1590 0 1590 0 0 1910 0 1910 -1485 0 -1485 0 0 -1485 0 -1485 1170 0 1170
0 0 -105 0 -105 -1280 0 -1280 0 0 1585 0 1585 -1480 0 -1480 0 0 -1585 0
-1585 -110 0 -110 0 0 2545 0 2545 110 0 110 0 0 -801z"/>
<path d="M3561 6885 c-706 -327 -1287 -597 -1289 -600 -3 -3 578 -5 1291 -5
l1297 0 0 600 c0 330 -3 600 -7 600 -5 0 -586 -268 -1292 -595z"/>
</g>
</svg>
